HIERARCHY
ROOT Hips
{
	OFFSET 0.000000 0.000000 0.000000
	CHANNELS 6 Xposition Yposition Zposition Xrotation Yrotation Zrotation
	JOINT LeftUpLeg_virtual
	{
		OFFSET 0.000000 0.000000 0.000000
		CHANNELS 3 Xrotation Yrotation Zrotation
		JOINT LeftUpLeg
		{
			OFFSET 11.394100 -6.187798 -0.413800
			CHANNELS 3 Xrotation Yrotation Zrotation
			JOINT LeftLeg
			{
				OFFSET 0.430247 -32.302673 3.732800
				CHANNELS 3 Xrotation Yrotation Zrotation
				JOINT LeftFoot
				{
					OFFSET -0.430247 -48.264931 -6.423300
					CHANNELS 3 Xrotation Yrotation Zrotation
					JOINT LeftToeBase
					{
						OFFSET 4.230900 -16.068199 23.438400
						CHANNELS 3 Xrotation Yrotation Zrotation
						JOINT LeftToe_End
						{
							OFFSET 4.510700 0.695400 19.974600
							CHANNELS 3 Xrotation Yrotation Zrotation
							End Site
							{
								OFFSET 0 0 0
							}
						}
					}
				}
			}
		}
	}
	JOINT RightUpLeg_virtual
	{
		OFFSET 0.000000 0.000000 0.000000
		CHANNELS 3 Xrotation Yrotation Zrotation
		JOINT RightUpLeg
		{
			OFFSET -11.333700 -6.187798 -0.413800
			CHANNELS 3 Xrotation Yrotation Zrotation
			JOINT RightLeg
			{
				OFFSET -0.430392 -32.302628 3.733000
				CHANNELS 3 Xrotation Yrotation Zrotation
				JOINT RightFoot
				{
					OFFSET 0.430392 -48.264973 -6.423500
					CHANNELS 3 Xrotation Yrotation Zrotation
					JOINT RightToeBase
					{
						OFFSET -4.230900 -16.068199 23.438400
						CHANNELS 3 Xrotation Yrotation Zrotation
						JOINT RightToe_End
						{
							OFFSET -4.510700 0.695400 19.974600
							CHANNELS 3 Xrotation Yrotation Zrotation
							End Site
							{
								OFFSET 0 0 0
							}
						}
					}
				}
			}
		}
	}
	JOINT Spine_virtual
	{
		OFFSET 0.000000 0.000000 0.000000
		CHANNELS 3 Xrotation Yrotation Zrotation
		JOINT Spine
		{
			OFFSET -0.002400 12.777504 0.315300
			CHANNELS 3 Xrotation Yrotation Zrotation
			JOINT Spine1
			{
				OFFSET -0.002067 5.816869 0.032633
				CHANNELS 3 Xrotation Yrotation Zrotation
				JOINT Spine1_split
				{
					OFFSET -0.002067 5.816869 0.032633
					CHANNELS 3 Xrotation Yrotation Zrotation
					JOINT Spine2
					{
						OFFSET -0.002067 5.816869 0.032633
						CHANNELS 3 Xrotation Yrotation Zrotation
						JOINT Neck_virtual
						{
							OFFSET 0.000000 0.000000 0.000000
							CHANNELS 3 Xrotation Yrotation Zrotation
							JOINT Neck
							{
								OFFSET -0.003700 21.199493 -0.826900
								CHANNELS 3 Xrotation Yrotation Zrotation
								JOINT Head
								{
									OFFSET 0.000000 20.442200 4.834800
									CHANNELS 3 Xrotation Yrotation Zrotation
									JOINT HeadTop_End
									{
										OFFSET 0.000000 34.668396 4.968400
										CHANNELS 3 Xrotation Yrotation Zrotation
										End Site
										{
											OFFSET 0 0 0
										}
									}
								}
							}
						}
						JOINT LeftShoulder_virtual
						{
							OFFSET 0.000000 0.000000 0.000000
							CHANNELS 3 Xrotation Yrotation Zrotation
							JOINT LeftShoulder
							{
								OFFSET 3.288150 8.794197 -1.372250
								CHANNELS 3 Xrotation Yrotation Zrotation
								JOINT LeftShoulder_split
								{
									OFFSET 3.288150 8.794197 -1.372250
									CHANNELS 3 Xrotation Yrotation Zrotation
									JOINT LeftArm
									{
										OFFSET 11.953299 -2.279007 -0.146200
										CHANNELS 3 Xrotation Yrotation Zrotation
										JOINT LeftForeArm
										{
											OFFSET 18.448900 0.000000 0.000000
											CHANNELS 3 Xrotation Yrotation Zrotation
											JOINT LeftHand
											{
												OFFSET 29.527798 0.000000 0.000000
												CHANNELS 3 Xrotation Yrotation Zrotation
												End Site
												{
													OFFSET 0 0 0
												}
											}
										}
									}
								}
							}
						}
						JOINT RightShoulder_virtual
						{
							OFFSET 0.000000 0.000000 0.000000
							CHANNELS 3 Xrotation Yrotation Zrotation
							JOINT RightShoulder
							{
								OFFSET -3.249400 8.794197 -1.372250
								CHANNELS 3 Xrotation Yrotation Zrotation
								JOINT RightShoulder_split
								{
									OFFSET -3.249400 8.794197 -1.372250
									CHANNELS 3 Xrotation Yrotation Zrotation
									JOINT RightArm
									{
										OFFSET -11.953299 -2.279007 -0.146200
										CHANNELS 3 Xrotation Yrotation Zrotation
										JOINT RightForeArm
										{
											OFFSET -18.448900 0.000000 0.000000
											CHANNELS 3 Xrotation Yrotation Zrotation
											JOINT RightHand
											{
												OFFSET -29.527802 0.000000 0.000000
												CHANNELS 3 Xrotation Yrotation Zrotation
												End Site
												{
													OFFSET 0 0 0
												}
											}
										}
									}
								}
							}
						}
					}
				}
			}
		}
	}
}
MOTION
Frames: 5
Frame Time: 0.03333333
-1.591938 94.174225 -5.220879 0.000000 0.000000 0.000000 -24.355744 -10.449821 -1.490281 8.062423 22.211287 4.074288 39.340401 11.950043 -6.876344 -20.399859 26.484151 9.152290 -2.626375 -0.484493 -2.978889 0.000000 0.000000 0.000000 -23.432487 -9.461972 -1.740485 20.817182 -13.341846 0.147893 24.153863 -9.117367 -3.848371 -16.887511 -22.010032 2.322088 -8.797743 -0.436684 0.713797 0.000000 0.000000 0.000000 -23.642205 -9.651974 -1.535249 10.751847 -4.351478 -1.156625 2.873868 -1.880625 0.173439 0.717478 2.610080 -0.006073 0.000000 0.000000 0.000000 2.777614 -2.031541 -0.081383 0.645724 0.968432 -2.705154 -5.069305 -1.782848 4.552770 0.000000 0.000000 0.000000 3.801244 -2.273955 0.216469 0.078538 -17.626903 -11.692894 0.819115 -0.900008 -0.298845 -19.200413 2.938561 -38.108504 2.903405 -64.744606 3.395153 0.000000 0.000000 0.000000 3.503231 -1.933011 0.146999 0.370198 13.004359 16.780682 0.327671 0.488893 -0.697668 -10.953468 -4.528576 62.769903 -0.469442 41.618979 1.736362 0.000000 0.000000 0.000000 
-1.640746 94.097107 -5.223492 0.000000 0.000000 0.000000 -24.268451 -10.920679 -1.581041 7.230306 21.715108 5.055524 40.679282 11.615961 -7.036239 -19.499859 25.880466 8.594004 -2.643962 -0.258311 -3.414275 0.000000 0.000000 0.000000 -23.330360 -9.645940 -1.763920 20.611313 -13.869603 0.341616 24.058773 -9.161975 -3.848097 -17.130523 -22.125068 2.336794 -8.670209 -0.381787 0.512415 0.000000 0.000000 0.000000 -23.745523 -10.158834 -1.803808 10.896957 -4.556482 -1.230108 2.787985 -1.938342 0.183387 0.727476 2.151582 0.018429 0.000000 0.000000 0.000000 2.919155 -2.044551 -0.039788 0.691493 0.973893 -2.636762 -5.099488 -1.856711 4.726078 0.000000 0.000000 0.000000 3.723552 -2.288701 0.234184 0.101202 -17.633197 -11.710382 0.718363 -1.182656 -0.081996 -19.251156 2.897906 -38.180395 2.935301 -64.762535 3.445815 0.000000 0.000000 0.000000 3.403772 -1.974969 0.172691 0.362184 12.871734 16.697767 0.433155 0.086027 -0.641557 -11.151234 -4.701517 62.848935 -0.528370 41.918240 1.752788 0.000000 0.000000 0.000000 
-1.838394 94.119911 -5.195225 0.000000 0.000000 0.000000 -24.195704 -11.903978 -2.205197 4.894914 20.971510 6.872781 43.342174 11.055534 -7.223523 -18.131794 24.251048 7.951455 -2.831482 -0.067808 -3.810464 0.000000 0.000000 0.000000 -23.361537 -10.260765 -2.270464 20.649868 -14.531169 0.739836 23.576744 -9.144141 -3.686697 -17.798573 -22.137721 1.977548 -7.647333 -0.333999 0.369606 0.000000 0.000000 0.000000 -23.813366 -11.244187 -2.546660 10.968045 -4.733522 -1.272600 2.706554 -1.996340 0.204489 0.716438 1.819258 0.084789 0.000000 0.000000 0.000000 3.051705 -2.059199 0.008173 0.702802 0.958340 -2.494565 -5.180048 -2.051782 5.076918 0.000000 0.000000 0.000000 3.658336 -2.296424 0.242225 0.144119 -17.569028 -11.571181 0.641851 -1.346938 -0.023291 -19.496101 2.841591 -38.257078 2.975998 -64.773375 3.560991 0.000000 0.000000 0.000000 3.306920 -2.026162 0.188644 0.378584 12.667493 16.482759 0.543118 -0.177653 -0.541002 -11.363525 -4.957420 62.931874 -0.595159 42.250614 1.798565 0.000000 0.000000 0.000000 
-2.008494 94.195061 -5.125345 0.000000 0.000000 0.000000 -24.204350 -13.274090 -3.260509 1.419267 19.917224 9.070009 46.594574 10.222169 -7.276388 -16.589380 21.624234 7.063576 -3.148131 0.038608 -3.984346 0.000000 0.000000 0.000000 -23.558431 -11.338728 -3.183397 20.778170 -15.166737 1.161977 22.930403 -8.979277 -3.394513 -18.448561 -22.047113 1.548682 -6.238366 -0.288865 0.277513 0.000000 0.000000 0.000000 -23.888216 -12.823127 -3.636077 10.989538 -4.853590 -1.247550 2.648443 -2.029394 0.229529 0.714821 1.667625 0.129974 0.000000 0.000000 0.000000 3.130405 -2.070881 0.047521 0.682628 0.924063 -2.317466 -5.314688 -2.315799 5.501009 0.000000 0.000000 0.000000 3.599450 -2.295464 0.236865 0.200108 -17.443200 -11.295987 0.490505 -1.391997 -0.121888 -19.857460 2.824309 -38.316364 2.983535 -64.766640 3.679190 0.000000 0.000000 0.000000 3.230312 -2.068289 0.198731 0.404514 12.471604 16.211905 0.621409 -0.196835 -0.501343 -11.525948 -5.230605 63.003188 -0.637394 42.458956 1.845383 0.000000 0.000000 0.000000 
-2.094379 94.300537 -4.848289 0.000000 0.000000 0.000000 -24.318895 -14.869033 -4.529032 -2.472813 18.374677 11.008119 49.535725 9.125276 -6.981009 -15.055293 18.150137 5.613443 -3.593151 0.041091 -3.725959 0.000000 0.000000 0.000000 -23.853372 -12.855513 -4.327072 20.773044 -15.578666 1.327661 22.272699 -8.432547 -3.050926 -18.529115 -21.790923 1.650682 -5.356580 -0.252426 0.206674 0.000000 0.000000 0.000000 -24.017646 -14.817843 -4.906302 11.006420 -4.919631 -1.170088 2.619278 -2.031755 0.249286 0.686579 1.598499 0.088856 0.000000 0.000000 0.000000 3.137565 -2.077766 0.071134 0.657418 0.902858 -2.153896 -5.477372 -2.565723 5.891930 0.000000 0.000000 0.000000 3.550265 -2.285209 0.222388 0.262681 -17.283625 -10.938174 0.278254 -1.360423 -0.353567 -20.216617 2.833673 -38.348200 2.948704 -64.796632 3.757131 0.000000 0.000000 0.000000 3.184852 -2.089711 0.199066 0.453718 12.316156 15.948287 0.639922 -0.058793 -0.540249 -11.629608 -5.470348 63.021165 -0.641585 42.478217 1.873386 0.000000 0.000000 0.000000 
